<svg width="870" height="588" xmlns="http://www.w3.org/2000/svg" xmlns:xlink="http://www.w3.org/1999/xlink" xml:space="preserve" overflow="hidden"><defs><clipPath id="clip0"><rect x="2329" y="1158" width="870" height="588"/></clipPath></defs><g clip-path="url(#clip0)" transform="translate(-2329 -1158)"><path d="M418.685 0 372.37 0 372.37 0.000360965 209.343 0.000360965C93.7258 0.000360965 0 125.361 0 280 0 434.64 93.7258 560 209.343 560L418.685 560C444.264 560 465 434.64 465 280 465 125.36 444.264 0 418.685 0Z" stroke="#2F5597" stroke-width="27.5" stroke-miterlimit="8" fill="none" fill-rule="evenodd" transform="matrix(-1 0 0 1 3185 1172)"/><path d="M2343 1188C2343 1179.16 2350.16 1172 2359 1172L2620 1172C2628.84 1172 2636 1179.16 2636 1188L2636 1252C2636 1260.84 2628.84 1268 2620 1268L2359 1268C2350.16 1268 2343 1260.84 2343 1252Z" stroke="#2F5597" stroke-width="27.5" stroke-miterlimit="8" fill="none" fill-rule="evenodd"/><path d="M2343 1419.17C2343 1410.24 2350.24 1403 2359.17 1403L2619.83 1403C2628.76 1403 2636 1410.24 2636 1419.17L2636 1483.83C2636 1492.76 2628.76 1500 2619.83 1500L2359.17 1500C2350.24 1500 2343 1492.76 2343 1483.83Z" stroke="#2F5597" stroke-width="27.5" stroke-miterlimit="8" fill="none" fill-rule="evenodd"/><path d="M2343 1651.17C2343 1642.24 2350.24 1635 2359.17 1635L2619.83 1635C2628.76 1635 2636 1642.24 2636 1651.17L2636 1715.83C2636 1724.76 2628.76 1732 2619.83 1732L2359.17 1732C2350.24 1732 2343 1724.76 2343 1715.83Z" stroke="#2F5597" stroke-width="27.5" stroke-miterlimit="8" fill="none" fill-rule="evenodd"/></g></svg>