<svg width="1760" height="1760" xmlns="http://www.w3.org/2000/svg" xmlns:xlink="http://www.w3.org/1999/xlink" xml:space="preserve" overflow="hidden"><defs><clipPath id="clip0"><rect x="1353" y="254" width="1760" height="1760"/></clipPath></defs><g clip-path="url(#clip0)" transform="translate(-1353 -254)"><rect x="2250" y="425" width="490" height="511" fill="#FFFF00"/><path d="M2775.15 397C2687.07 308.783 2564.4 253.966 2429.9 254L2036.07 254C1901.56 253.966 1778.89 308.783 1690.85 397 1602.64 485.038 1547.82 607.708 1547.85 742.214L1547.85 1293.59C1547.85 1490.67 1623.31 1670.41 1746.62 1801.04 1869.68 1931.71 2042.45 2014.07 2233 2014 2423.55 2014.07 2596.32 1931.71 2719.35 1801.04 2842.69 1670.41 2918.15 1490.7 2918.15 1293.59L2918.15 742.211C2918.18 607.705 2863.33 485.034 2775.15 397ZM1736.58 742.211C1736.61 659.209 1769.94 584.911 1824.26 530.447 1878.77 476.09 1953.06 442.76 2036.07 442.726L2165.6 442.726 2165.6 892.182 1736.58 892.182 1736.58 742.211ZM2729.42 1293.59C2729.42 1442.26 2672.67 1575.57 2582.12 1671.54 2491.34 1767.46 2368.7 1825.21 2233 1825.28 2097.26 1825.21 1974.66 1767.46 1883.88 1671.54 1793.33 1575.57 1736.58 1442.26 1736.58 1293.59L1736.58 1026.97 2729.42 1026.97 2729.42 1293.59ZM2729.42 892.182 2300.4 892.182 2300.4 442.726 2429.9 442.726C2512.9 442.76 2587.2 476.09 2641.7 530.447 2696.06 584.911 2729.39 659.209 2729.42 742.211L2729.42 892.182Z" fill="#2F5597"/></g></svg>